<svg id="圖層_1" data-name="圖層 1" xmlns="http://www.w3.org/2000/svg" xmlns:xlink="http://www.w3.org/1999/xlink" viewBox="0 0 616.97 616.97"><defs><style>.cls-1{fill:#4db54d;stroke:#e6e6e6;stroke-miterlimit:10;stroke-width:20px;}.cls-2{fill:#fff;}.cls-3{fill:url(#未命名漸層_193);}.cls-4{fill:#f44236;}.cls-5{fill:url(#未命名漸層_352);}</style><linearGradient id="未命名漸層_193" x1="515.36" y1="651.85" x2="561.42" y2="651.85" gradientTransform="translate(-90.86 1.18)" gradientUnits="userSpaceOnUse"><stop offset="0.37" stop-color="#fc006d"/><stop offset="0.76" stop-color="#fa41d1" stop-opacity="0.9"/></linearGradient><linearGradient id="未命名漸層_352" x1="570.22" y1="673.79" x2="539.5" y2="629.91" gradientTransform="translate(-95.48 12.62)" gradientUnits="userSpaceOnUse"><stop offset="0.15" stop-color="#4daf50"/><stop offset="0.28" stop-color="#4daf50"/></linearGradient></defs><title>whatsartlogo </title><circle class="cls-1" cx="308.49" cy="308.49" r="298.49"/><path class="cls-2" d="M453.91,580.58c-32,0-57.78,26.44-57.78,59.2,0,25.85-22.34,39.47-38.52,39.47,17.72,24.07,48,39.47,77,39.47,42.56,0,77-35.32,77-78.93C511.69,607,485.88,580.58,453.91,580.58Zm264-184.9-25.81-26.44a18.86,18.86,0,0,0-27.16,0L492.43,546l53,54.27L718,423.51A20,20,0,0,0,718,395.68Z" transform="translate(-230.12 -232.23)"/><rect class="cls-3" x="424.5" y="646.31" width="46.06" height="13.44" transform="translate(349.12 -359.83) rotate(44)"/><rect class="cls-4" x="428.88" y="610.31" width="13.47" height="62.43" rx="6.73" ry="6.73" transform="translate(337.79 -354.79) rotate(44)"/><rect class="cls-5" x="452.65" y="633.26" width="13.47" height="62.43" rx="6.73" ry="6.73" transform="translate(360.4 -364.85) rotate(44)"/></svg>